<?xml version="1.0" encoding="UTF-8" standalone="no"?>
<svg
   xmlns:dc="http://purl.org/dc/elements/1.1/"
   xmlns:cc="http://creativecommons.org/ns#"
   xmlns:rdf="http://www.w3.org/1999/02/22-rdf-syntax-ns#"
   xmlns:svg="http://www.w3.org/2000/svg"
   xmlns="http://www.w3.org/2000/svg"
   width="15mm"
   height="15mm"
   viewBox="0 0 15 15"
   version="1.1"
   id="svg8">
  <defs
     id="defs2" />
  <metadata
     id="metadata5">
    <rdf:RDF>
      <cc:Work
         rdf:about="">
        <dc:format>image/svg+xml</dc:format>
        <dc:type
           rdf:resource="http://purl.org/dc/dcmitype/StillImage" />
        <dc:title></dc:title>
      </cc:Work>
    </rdf:RDF>
  </metadata>
  <g
     id="layer1"
     transform="matrix(1.4210582,0,0,1.4210582,-4.2978731,-404.99592)">
    <path
       id="path23"
       d="m 6.5411465,294.93096 c -1.6579,-0.63736 -2.55436,-1.63428 -3.13338,-3.48455 -0.41618,-1.32992 -0.41103,-1.43952 0.13581,-2.89267 0.67356,-1.78988 1.62419,-2.67118 3.5219,-3.26505 1.3299305,-0.41618 1.4395205,-0.41104 2.8926701,0.13581 1.7625204,0.66326 2.6330204,1.58504 3.2494004,3.44078 0.41312,1.24378 0.41312,1.41847 0,2.66225 -0.61093,1.83935 -1.48906,2.77888 -3.19318,3.41647 -1.74634,0.6534 -1.73959,0.65342 -3.4732205,-0.013 z m 1.29374,-2.55174 c 0.0498,-0.43316 0.24433,-0.72761 0.4806005,-0.72761 0.23627,0 0.43075,0.29445 0.48059,0.72761 0.0701,0.60937 0.20985,0.7276 0.8598996,0.7276 0.7644304,0 0.7761704,-0.022 0.7761704,-1.45521 0,-1.19848 0.0801,-1.4552 0.45399,-1.4552 0.30975,0 -0.003,-0.46233 -0.9831504,-1.45521 -0.7904196,-0.80037 -1.5561696,-1.45521 -1.7016696,-1.45521 -0.3130505,0 -2.7962505,2.39953 -2.7962505,2.70203 0,0.11461 0.1786,0.20839 0.39688,0.20839 0.30467,0 0.39687,0.33808 0.39687,1.4552 0,1.43319 0.0118,1.45521 0.77618,1.45521 0.65005,0 0.78978,-0.11823 0.85989,-0.7276 z"
       style="fill:#000000;stroke-width:0.26458332" />
  </g>
</svg>
