<?xml version="1.0" encoding="UTF-8" standalone="no"?>
<svg
   xmlns:dc="http://purl.org/dc/elements/1.1/"
   xmlns:cc="http://creativecommons.org/ns#"
   xmlns:rdf="http://www.w3.org/1999/02/22-rdf-syntax-ns#"
   xmlns:svg="http://www.w3.org/2000/svg"
   xmlns="http://www.w3.org/2000/svg"
   width="15mm"
   height="15mm"
   viewBox="0 0 15 15"
   version="1.1"
   id="svg8">
  <defs
     id="defs2" />
  <metadata
     id="metadata5">
    <rdf:RDF>
      <cc:Work
         rdf:about="">
        <dc:format>image/svg+xml</dc:format>
        <dc:type
           rdf:resource="http://purl.org/dc/dcmitype/StillImage" />
        <dc:title></dc:title>
      </cc:Work>
    </rdf:RDF>
  </metadata>
  <g
     id="layer1"
     transform="matrix(1.4059798,0,0,1.4059798,-3.5703922,-400.47941)">
    <path
       style="fill:#000000;stroke-width:0.26458332"
       d="m 6.2544613,294.96098 c -1.69793,-0.66322 -2.2383,-1.17978 -2.98538,-2.85386 -0.79669,-1.78523 -0.78359,-2.29307 0.10434,-4.04578 0.77746,-1.53463 1.68853,-2.29225 3.45926,-2.87665 0.93861,-0.30977 1.271,-0.30977 2.20961,0 1.7841497,0.58882 2.6842797,1.344 3.4507697,2.89508 0.87101,1.7626 0.89385,2.23391 0.18801,3.88067 -0.73166,1.70702 -1.18017,2.16685 -2.8328997,2.90441 -1.66222,0.74179 -1.92288,0.74876 -3.59371,0.0961 z m 3.14673,-2.2375 c 1.0251897,-0.42835 1.2977097,-1.11909 0.32223,-0.81675 -1.79796,0.55726 -2.72882,0.48402 -3.48722,-0.27438 -0.42362,-0.42362 -0.54701,-1.57879 -0.25103,-2.3501 0.20643,-0.53793 1.46491,-1.20248 2.27718,-1.20248 0.8941,0 1.7917997,0.72574 1.7917997,1.44857 0,0.887 -0.2639697,1.46185 -0.6712897,1.46185 -0.26904,0 -0.29312,-0.1987 -0.10399,-0.85815 0.34815,-1.21392 0.36737,-1.18898 -0.93638,-1.21514 -1.28674,-0.0258 -1.9925,0.57735 -1.9925,1.70289 0,0.85707 0.53155,1.13735 2.03788,1.07452 1.7297597,-0.0722 2.4600297,-0.67238 2.4600297,-2.02193 0,-2.59824 -4.1844197,-3.19586 -5.4356097,-0.77632 -1.38735,2.68285 1.07457,5.0451 3.9889,3.82742 z m -1.99287,-2.37914 c 0,-0.70173 0.44635,-1.13899 0.78916,-0.77308 0.26686,0.28485 -0.14559,1.41893 -0.51605,1.41893 -0.15021,0 -0.27311,-0.29063 -0.27311,-0.64585 z"
       id="path55" />
  </g>
</svg>
