<?xml version="1.0" encoding="UTF-8" standalone="no"?>
<svg
   xmlns:dc="http://purl.org/dc/elements/1.1/"
   xmlns:cc="http://creativecommons.org/ns#"
   xmlns:rdf="http://www.w3.org/1999/02/22-rdf-syntax-ns#"
   xmlns:svg="http://www.w3.org/2000/svg"
   xmlns="http://www.w3.org/2000/svg"
   width="15mm"
   height="15mm"
   viewBox="0 0 15 15"
   version="1.1"
   id="svg8">
  <defs
     id="defs2" />
  <metadata
     id="metadata5">
    <rdf:RDF>
      <cc:Work
         rdf:about="">
        <dc:format>image/svg+xml</dc:format>
        <dc:type
           rdf:resource="http://purl.org/dc/dcmitype/StillImage" />
        <dc:title></dc:title>
      </cc:Work>
    </rdf:RDF>
  </metadata>
  <g
     id="layer1"
     transform="matrix(1.4423958,0,0,1.4423958,-4.3628742,-409.23666)">
    <path
       style="fill:#000000;stroke-width:0.26458332"
       d="m 5.9787542,293.52187 c -3.19039,-1.57921 -3.62832,-6.38976 -0.77457,-8.50854 0.94631,-0.70259 2.35082,-1.24393 3.21692,-1.23991 1.12365,0.005 3.2835098,1.25545 3.9755898,2.30125 2.88558,4.3604 -1.7611,9.75227 -6.4179398,7.4472 z m 4.1317498,-4.43813 c 0.0557,-2.23928 -0.0127,-3.0773 -0.2645798,-3.2371 -0.52331,-0.33204 -2.97278,-0.26305 -3.32961,0.0938 -0.33536,0.33536 -0.45856,5.09245 -0.15255,5.88992 0.13374,0.34852 0.49671,0.41519 1.91823,0.35236 l 1.7532798,-0.0775 z m -2.1805998,2.64288 c -0.18073,-0.29242 0.23665,-0.60818 0.48096,-0.36386 0.25157,0.25156 0.20468,0.61016 -0.0798,0.61016 -0.13693,0 -0.31747,-0.11083 -0.40119,-0.2463 z m -0.93734,-3.19328 v -2.41024 l 1.25677,0.0806 1.25677,0.0806 v 2.24896 2.24896 l -1.25677,0.0806 -1.25677,0.0806 z"
       id="path119" />
  </g>
</svg>
