<?xml version="1.0" encoding="UTF-8" standalone="no"?>
<!-- Created with Inkscape (http://www.inkscape.org/) -->

<svg
   xmlns:dc="http://purl.org/dc/elements/1.1/"
   xmlns:cc="http://creativecommons.org/ns#"
   xmlns:rdf="http://www.w3.org/1999/02/22-rdf-syntax-ns#"
   xmlns:svg="http://www.w3.org/2000/svg"
   xmlns="http://www.w3.org/2000/svg"
   xmlns:sodipodi="http://sodipodi.sourceforge.net/DTD/sodipodi-0.dtd"
   xmlns:inkscape="http://www.inkscape.org/namespaces/inkscape"
   width="210mm"
   height="297mm"
   viewBox="0 0 210 297"
   version="1.1"
   id="svg8"
   inkscape:version="0.92.3 (2405546, 2018-03-11)"
   sodipodi:docname="annuncio-funebre.svg">
  <defs
     id="defs2" />
  <sodipodi:namedview
     id="base"
     pagecolor="#ffffff"
     bordercolor="#666666"
     borderopacity="1.0"
     inkscape:pageopacity="0.0"
     inkscape:pageshadow="2"
     inkscape:zoom="0.35"
     inkscape:cx="-60"
     inkscape:cy="548.57143"
     inkscape:document-units="mm"
     inkscape:current-layer="layer1"
     showgrid="false"
     inkscape:window-width="1920"
     inkscape:window-height="1012"
     inkscape:window-x="1920"
     inkscape:window-y="0"
     inkscape:window-maximized="1" />
  <metadata
     id="metadata5">
    <rdf:RDF>
      <cc:Work
         rdf:about="">
        <dc:format>image/svg+xml</dc:format>
        <dc:type
           rdf:resource="http://purl.org/dc/dcmitype/StillImage" />
        <dc:title></dc:title>
      </cc:Work>
    </rdf:RDF>
  </metadata>
  <g
     inkscape:label="Livello 1"
     inkscape:groupmode="layer"
     id="layer1">
    <path
       style="fill:#000000;stroke-width:4.50766087"
       d="M 184.48255,179.23349 C 166.92714,170.10397 153.86772,167.88425 98.494965,164.61812 53.092337,161.93993 28.848593,158.51331 18.898746,153.36802 3.8496066,145.58594 0.19520682,135.32908 10.995021,131.18471 c 5.532539,-2.12296 5.533562,-5.35041 0.0073,-23.71255 C 4.941673,87.334131 5.0197018,86.578888 12.486261,93.100755 26.483548,105.32638 52.756036,110.7216 116.41106,114.44228 c 43.03281,2.51531 66.80379,5.9421 76.69298,11.05604 15.42839,7.97835 18.50421,17.91899 7.45754,24.10115 -6.11861,3.42406 -6.1406,5.92507 -0.19934,22.76239 3.67059,10.40354 6.2566,18.62756 5.74686,18.27575 -0.5094,-0.35096 -10.24169,-5.48364 -21.6262,-11.40412 z"
       id="path53"
       inkscape:connector-curvature="0" />
  </g>
</svg>
